Coordinates
version=1
nRows=6
nColumns=38
inDegrees=yes

Units are S.I. units (second, meters, Newtons, ...)
Angles are in degrees.

endheader
time	pelvis_tilt	pelvis_list	pelvis_rotation	pelvis_tx	pelvis_ty	pelvis_tz	hip_flexion_r	hip_adduction_r	hip_rotation_r	knee_angle_r	ankle_angle_r	subtalar_angle_r	mtp_angle_r	hip_flexion_l	hip_adduction_l	hip_rotation_l	knee_angle_l	ankle_angle_l	subtalar_angle_l	mtp_angle_l	lumbar_extension	lumbar_bending	lumbar_rotation	arm_flex_r	arm_add_r	arm_rot_r	elbow_flex_r	pro_sup_r	wrist_flex_r	wrist_dev_r	arm_flex_l	arm_add_l	arm_rot_l	elbow_flex_l	pro_sup_l	wrist_flex_l	wrist_dev_l
      1.40000000	      1.37228472	     -1.16206781	     -0.43379775	      0.13737725	      0.89288510	      0.21832524	    -17.86187933	      4.22040197	     -4.34623079	    -20.32668547	      7.42287780	      9.42266667	     15.26838598	     29.03063417	      1.90169665	      0.60788601	    -17.89410414	      1.35731209	      3.04985198	      7.91010242	     -8.12372121	      2.81147634	      4.21073788	      4.14848931	    -23.31409131	     10.45970779	     41.69362731	     86.51662706	      0.00000000	      0.00000000	     -7.36042325	    -11.43437131	     33.09156382	      1.33784461	     86.51662706	      0.00000000	      0.00000000
      1.41000000	      1.21894672	     -0.76707396	     -0.41791326	      0.15388374	      0.89129423	      0.21752624	    -17.82126282	      3.58781842	     -4.57832644	    -21.84658238	      5.71322950	      9.68066761	     17.70477567	     29.05497637	      2.63963866	      1.08950873	    -19.28699997	     -0.12185127	      2.06270521	      7.72660787	     -7.64018966	      2.30098653	      4.08063719	      3.57415699	    -23.07210275	     10.06292142	     41.61800303	     86.51662706	      0.00000000	      0.00000000	     -7.63933214	    -11.51389660	     33.43018136	      1.16638801	     86.51662706	      0.00000000	      0.00000000
      1.42000000	      1.06390767	     -0.29507022	     -0.33583306	      0.17038864	      0.88998830	      0.21664633	    -17.63394954	      2.90087261	     -4.84673846	    -23.53067881	      3.58786673	      9.84335055	     20.22158637	     29.10842983	      3.43308527	      1.62933916	    -20.66710281	     -1.69686220	      0.79496479	      7.51181796	     -7.14406972	      1.70623755	      3.86086066	      2.98631043	    -22.76937824	      9.64818567	     41.43515845	     86.51662706	      0.00000000	      0.00000000	     -7.87433934	    -11.61957373	     33.74187764	      1.04866619	     86.51662706	      0.00000000	      0.00000000
      1.43000000	      0.90771052	      0.25892528	     -0.19962004	      0.18672038	      0.88922293	      0.21572665	    -17.26926594	      2.14972125	     -5.13273298	    -25.40813079	      1.01249456	      9.86935396	     22.69215945	     29.18780971	      4.26650340	      2.19549996	    -22.07426719	     -3.20422003	     -0.63335340	      7.28401161	     -6.66108141	      1.02712383	      3.56847155	      2.40245303	    -22.40760794	      9.22423236	     41.14058707	     86.51662706	      0.00000000	      0.00000000	     -8.04432137	    -11.74945446	     34.01407738	      0.98759268	     86.51662706	      0.00000000	      0.00000000
      1.44000000	      0.74994288	      0.88519384	     -0.03117605	      0.20279412	      0.88901688	      0.21482244	    -16.70161395	      1.32901042	     -5.41001820	    -27.50712958	     -2.00140119	      9.70531334	     24.97805811	     29.26676176	      5.13548238	      2.75654496	    -23.53081477	     -4.47952225	     -2.09085897	      7.06029861	     -6.21189328	      0.27061297	      3.23232730	      1.83505647	    -21.99238299	      8.80418043	     40.73295731	     86.51662706	      0.00000000	      0.00000000	     -8.13403841	    -11.90325302	     34.23329938	      0.98736078	     86.51662706	      0.00000000	      0.00000000
      1.45000000	      0.59777327	      1.56201330	      0.14196783	      0.21865019	      0.88918555	      0.21398266	    -15.91486982	      0.44398706	     -5.64492577	    -29.85042427	     -5.38167165	      9.28556781	     26.94430929	     29.31312318	      6.04138862	      3.27956292	    -25.01422110	     -5.38533999	     -3.44697220	      6.85293239	     -5.81035066	     -0.54911816	      2.88698370	      1.29247768	    -21.53327745	      8.40589481	     40.21388469	     86.51662706	      0.00000000	      0.00000000	     -8.13553849	    -12.08180688	     34.38571650	      1.05320629	     86.51662706	      0.00000000	      0.00000000
